<svg height="574" width="720" xmlns="http://www.w3.org/2000/svg">
<rect height="574" fill="#555" width="720"></rect>
<text fill="#7f7" font-family="Courier New" font-size="12" xml:space="preserve">
<tspan x="10" y="26">4 megabytes installed</tspan>
<tspan x="10" y="42"></tspan>
<tspan x="10" y="58">node_modules</tspan>
<tspan x="10" y="74">└─┬ mailparser@2.0.3 </tspan>
<tspan x="10" y="90">  ├── addressparser@1.0.1 </tspan>
<tspan x="10" y="106">  ├── he@1.1.1 </tspan>
<tspan x="10" y="122">  ├─┬ html-to-text@3.1.0 </tspan>
<tspan x="10" y="138">  │ ├─┬ htmlparser2@3.9.2 </tspan>
<tspan x="10" y="154">  │ │ ├── domelementtype@1.3.0 </tspan>
<tspan x="10" y="170">  │ │ ├── domhandler@2.3.0 </tspan>
<tspan x="10" y="186">  │ │ ├─┬ domutils@1.5.1 </tspan>
<tspan x="10" y="202">  │ │ │ └─┬ dom-serializer@0.1.0 </tspan>
<tspan x="10" y="218">  │ │ │   └── domelementtype@1.1.3 </tspan>
<tspan x="10" y="234">  │ │ ├── entities@1.1.1 </tspan>
<tspan x="10" y="250">  │ │ ├── inherits@2.0.3 </tspan>
<tspan x="10" y="266">  │ │ └─┬ readable-stream@2.2.9 </tspan>
<tspan x="10" y="282">  │ │   ├── buffer-shims@1.0.0 </tspan>
<tspan x="10" y="298">  │ │   ├── core-util-is@1.0.2 </tspan>
<tspan x="10" y="314">  │ │   ├── isarray@1.0.0 </tspan>
<tspan x="10" y="330">  │ │   ├── process-nextick-args@1.0.7 </tspan>
<tspan x="10" y="346">  │ │   └── string_decoder@1.0.0 </tspan>
<tspan x="10" y="362">  │ ├─┬ optimist@0.6.1 </tspan>
<tspan x="10" y="378">  │ │ ├── minimist@0.0.10 </tspan>
<tspan x="10" y="394">  │ │ └── wordwrap@0.0.3 </tspan>
<tspan x="10" y="410">  │ ├── underscore@1.8.3 </tspan>
<tspan x="10" y="426">  │ └─┬ underscore.string@3.3.4 </tspan>
<tspan x="10" y="442">  │   ├── sprintf-js@1.0.3 </tspan>
<tspan x="10" y="458">  │   └── util-deprecate@1.0.2 </tspan>
<tspan x="10" y="474">  ├── iconv-lite@0.4.15 </tspan>
<tspan x="10" y="490">  ├─┬ libmime@3.1.0 </tspan>
<tspan x="10" y="506">  │ ├── libbase64@0.1.0 </tspan>
<tspan x="10" y="522">  │ └── libqp@1.1.0 </tspan>
<tspan x="10" y="538">  ├── mailsplit@4.0.0 </tspan>
<tspan x="10" y="554">  └── marked@0.3.6</tspan>
</text>
</svg>
